<svg id="visual" viewBox="0 0 900 450" width="900" height="450" xmlns="http://www.w3.org/2000/svg" xmlns:xlink="http://www.w3.org/1999/xlink" version="1.1"><path d="M0 37L13.7 37.8C27.3 38.7 54.7 40.3 82 39.7C109.3 39 136.7 36 163.8 34.5C191 33 218 33 245.2 33.7C272.3 34.3 299.7 35.7 327 37.8C354.3 40 381.7 43 409 42.3C436.3 41.7 463.7 37.3 491 38.2C518.3 39 545.7 45 573 47.2C600.3 49.3 627.7 47.7 654.8 45.3C682 43 709 40 736.2 39.3C763.3 38.7 790.7 40.3 818 41.2C845.3 42 872.7 42 886.3 42L900 42L900 0L886.3 0C872.7 0 845.3 0 818 0C790.7 0 763.3 0 736.2 0C709 0 682 0 654.8 0C627.7 0 600.3 0 573 0C545.7 0 518.3 0 491 0C463.7 0 436.3 0 409 0C381.7 0 354.3 0 327 0C299.7 0 272.3 0 245.2 0C218 0 191 0 163.8 0C136.7 0 109.3 0 82 0C54.7 0 27.3 0 13.7 0L0 0Z" fill="#131223"></path><path d="M0 64L13.7 66.3C27.3 68.7 54.7 73.3 82 74.2C109.3 75 136.7 72 163.8 70.5C191 69 218 69 245.2 70.5C272.3 72 299.7 75 327 75.7C354.3 76.3 381.7 74.7 409 72.3C436.3 70 463.7 67 491 67.8C518.3 68.7 545.7 73.3 573 76.3C600.3 79.3 627.7 80.7 654.8 80.7C682 80.7 709 79.3 736.2 77.2C763.3 75 790.7 72 818 72C845.3 72 872.7 75 886.3 76.5L900 78L900 40L886.3 40C872.7 40 845.3 40 818 39.2C790.7 38.3 763.3 36.7 736.2 37.3C709 38 682 41 654.8 43.3C627.7 45.7 600.3 47.3 573 45.2C545.7 43 518.3 37 491 36.2C463.7 35.3 436.3 39.7 409 40.3C381.7 41 354.3 38 327 35.8C299.7 33.7 272.3 32.3 245.2 31.7C218 31 191 31 163.8 32.5C136.7 34 109.3 37 82 37.7C54.7 38.3 27.3 36.7 13.7 35.8L0 35Z" fill="#262050"></path><path d="M0 82L13.7 84.3C27.3 86.7 54.7 91.3 82 92.2C109.3 93 136.7 90 163.8 88.5C191 87 218 87 245.2 88.5C272.3 90 299.7 93 327 93C354.3 93 381.7 90 409 87.7C436.3 85.3 463.7 83.7 491 85.2C518.3 86.7 545.7 91.3 573 94.3C600.3 97.3 627.7 98.7 654.8 97.8C682 97 709 94 736.2 91C763.3 88 790.7 85 818 85C845.3 85 872.7 88 886.3 89.5L900 91L900 76L886.3 74.5C872.7 73 845.3 70 818 70C790.7 70 763.3 73 736.2 75.2C709 77.3 682 78.7 654.8 78.7C627.7 78.7 600.3 77.3 573 74.3C545.7 71.3 518.3 66.7 491 65.8C463.7 65 436.3 68 409 70.3C381.7 72.7 354.3 74.3 327 73.7C299.7 73 272.3 70 245.2 68.5C218 67 191 67 163.8 68.5C136.7 70 109.3 73 82 72.2C54.7 71.3 27.3 66.7 13.7 64.3L0 62Z" fill="#462a7e"></path><path d="M0 114L13.7 115.5C27.3 117 54.7 120 82 120C109.3 120 136.7 117 163.8 114.7C191 112.3 218 110.7 245.2 112.2C272.3 113.7 299.7 118.3 327 119.2C354.3 120 381.7 117 409 114.7C436.3 112.3 463.7 110.7 491 112.2C518.3 113.7 545.7 118.3 573 120.7C600.3 123 627.7 123 654.8 121.5C682 120 709 117 736.2 114.7C763.3 112.3 790.7 110.7 818 110.7C845.3 110.7 872.7 112.3 886.3 113.2L900 114L900 89L886.3 87.5C872.7 86 845.3 83 818 83C790.7 83 763.3 86 736.2 89C709 92 682 95 654.8 95.8C627.7 96.7 600.3 95.3 573 92.3C545.7 89.3 518.3 84.7 491 83.2C463.7 81.7 436.3 83.3 409 85.7C381.7 88 354.3 91 327 91C299.7 91 272.3 88 245.2 86.5C218 85 191 85 163.8 86.5C136.7 88 109.3 91 82 90.2C54.7 89.3 27.3 84.7 13.7 82.3L0 80Z" fill="#722caa"></path><path d="M0 208L13.7 206.5C27.3 205 54.7 202 82 204.3C109.3 206.7 136.7 214.3 163.8 215.2C191 216 218 210 245.2 206.2C272.3 202.3 299.7 200.7 327 203.7C354.3 206.7 381.7 214.3 409 215.2C436.3 216 463.7 210 491 207C518.3 204 545.7 204 573 207.7C600.3 211.3 627.7 218.7 654.8 221.7C682 224.7 709 223.3 736.2 218.2C763.3 213 790.7 204 818 202.5C845.3 201 872.7 207 886.3 210L900 213L900 112L886.3 111.2C872.7 110.3 845.3 108.7 818 108.7C790.7 108.7 763.3 110.3 736.2 112.7C709 115 682 118 654.8 119.5C627.7 121 600.3 121 573 118.7C545.7 116.3 518.3 111.7 491 110.2C463.7 108.7 436.3 110.3 409 112.7C381.7 115 354.3 118 327 117.2C299.7 116.3 272.3 111.7 245.2 110.2C218 108.7 191 110.3 163.8 112.7C136.7 115 109.3 118 82 118C54.7 118 27.3 115 13.7 113.5L0 112Z" fill="#a91dd1"></path><path d="M0 222L13.7 220.5C27.3 219 54.7 216 82 219C109.3 222 136.7 231 163.8 231.7C191 232.3 218 224.7 245.2 220.2C272.3 215.7 299.7 214.3 327 218.2C354.3 222 381.7 231 409 231.7C436.3 232.3 463.7 224.7 491 221.7C518.3 218.7 545.7 220.3 573 224.8C600.3 229.3 627.7 236.7 654.8 238.8C682 241 709 238 736.2 232C763.3 226 790.7 217 818 215.5C845.3 214 872.7 220 886.3 223L900 226L900 211L886.3 208C872.7 205 845.3 199 818 200.5C790.7 202 763.3 211 736.2 216.2C709 221.3 682 222.7 654.8 219.7C627.7 216.7 600.3 209.3 573 205.7C545.7 202 518.3 202 491 205C463.7 208 436.3 214 409 213.2C381.7 212.3 354.3 204.7 327 201.7C299.7 198.7 272.3 200.3 245.2 204.2C218 208 191 214 163.8 213.2C136.7 212.3 109.3 204.7 82 202.3C54.7 200 27.3 203 13.7 204.5L0 206Z" fill="#c100df"></path><path d="M0 307L13.7 306.3C27.3 305.7 54.7 304.3 82 305.2C109.3 306 136.7 309 163.8 307.5C191 306 218 300 245.2 299.2C272.3 298.3 299.7 302.7 327 307.8C354.3 313 381.7 319 409 318.3C436.3 317.7 463.7 310.3 491 309.7C518.3 309 545.7 315 573 316.5C600.3 318 627.7 315 654.8 312.7C682 310.3 709 308.7 736.2 306.3C763.3 304 790.7 301 818 301.8C845.3 302.7 872.7 307.3 886.3 309.7L900 312L900 224L886.3 221C872.7 218 845.3 212 818 213.5C790.7 215 763.3 224 736.2 230C709 236 682 239 654.8 236.8C627.7 234.7 600.3 227.3 573 222.8C545.7 218.3 518.3 216.7 491 219.7C463.7 222.7 436.3 230.3 409 229.7C381.7 229 354.3 220 327 216.2C299.7 212.3 272.3 213.7 245.2 218.2C218 222.7 191 230.3 163.8 229.7C136.7 229 109.3 220 82 217C54.7 214 27.3 217 13.7 218.5L0 220Z" fill="#c100df"></path><path d="M0 330L13.7 328.5C27.3 327 54.7 324 82 324C109.3 324 136.7 327 163.8 326.2C191 325.3 218 320.7 245.2 319.8C272.3 319 299.7 322 327 326.5C354.3 331 381.7 337 409 336.3C436.3 335.7 463.7 328.3 491 328.3C518.3 328.3 545.7 335.7 573 337.8C600.3 340 627.7 337 654.8 334.8C682 332.7 709 331.3 736.2 328.3C763.3 325.3 790.7 320.7 818 320.7C845.3 320.7 872.7 325.3 886.3 327.7L900 330L900 310L886.3 307.7C872.7 305.3 845.3 300.7 818 299.8C790.7 299 763.3 302 736.2 304.3C709 306.7 682 308.3 654.8 310.7C627.7 313 600.3 316 573 314.5C545.7 313 518.3 307 491 307.7C463.7 308.3 436.3 315.7 409 316.3C381.7 317 354.3 311 327 305.8C299.7 300.7 272.3 296.3 245.2 297.2C218 298 191 304 163.8 305.5C136.7 307 109.3 304 82 303.2C54.7 302.3 27.3 303.7 13.7 304.3L0 305Z" fill="#a91dd1"></path><path d="M0 361L13.7 359.5C27.3 358 54.7 355 82 354.3C109.3 353.7 136.7 355.3 163.8 354.7C191 354 218 351 245.2 351C272.3 351 299.7 354 327 357C354.3 360 381.7 363 409 361.5C436.3 360 463.7 354 491 354C518.3 354 545.7 360 573 361.5C600.3 363 627.7 360 654.8 359.2C682 358.3 709 359.7 736.2 357.3C763.3 355 790.7 349 818 348.3C845.3 347.7 872.7 352.3 886.3 354.7L900 357L900 328L886.3 325.7C872.7 323.3 845.3 318.7 818 318.7C790.7 318.7 763.3 323.3 736.2 326.3C709 329.3 682 330.7 654.8 332.8C627.7 335 600.3 338 573 335.8C545.7 333.7 518.3 326.3 491 326.3C463.7 326.3 436.3 333.7 409 334.3C381.7 335 354.3 329 327 324.5C299.7 320 272.3 317 245.2 317.8C218 318.7 191 323.3 163.8 324.2C136.7 325 109.3 322 82 322C54.7 322 27.3 325 13.7 326.5L0 328Z" fill="#722caa"></path><path d="M0 379L13.7 377.5C27.3 376 54.7 373 82 373C109.3 373 136.7 376 163.8 376C191 376 218 373 245.2 373C272.3 373 299.7 376 327 378.3C354.3 380.7 381.7 382.3 409 380.8C436.3 379.3 463.7 374.7 491 374.7C518.3 374.7 545.7 379.3 573 380.8C600.3 382.3 627.7 380.7 654.8 379.8C682 379 709 379 736.2 376C763.3 373 790.7 367 818 367C845.3 367 872.7 373 886.3 376L900 379L900 355L886.3 352.7C872.7 350.3 845.3 345.7 818 346.3C790.7 347 763.3 353 736.2 355.3C709 357.7 682 356.3 654.8 357.2C627.7 358 600.3 361 573 359.5C545.7 358 518.3 352 491 352C463.7 352 436.3 358 409 359.5C381.7 361 354.3 358 327 355C299.7 352 272.3 349 245.2 349C218 349 191 352 163.8 352.7C136.7 353.3 109.3 351.7 82 352.3C54.7 353 27.3 356 13.7 357.5L0 359Z" fill="#462a7e"></path><path d="M0 433L13.7 431.5C27.3 430 54.7 427 82 426.3C109.3 425.7 136.7 427.3 163.8 427.3C191 427.3 218 425.7 245.2 426.3C272.3 427 299.7 430 327 430.8C354.3 431.7 381.7 430.3 409 428.8C436.3 427.3 463.7 425.7 491 426.3C518.3 427 545.7 430 573 430.8C600.3 431.7 627.7 430.3 654.8 430.3C682 430.3 709 431.7 736.2 430.8C763.3 430 790.7 427 818 426.3C845.3 425.7 872.7 427.3 886.3 428.2L900 429L900 377L886.3 374C872.7 371 845.3 365 818 365C790.7 365 763.3 371 736.2 374C709 377 682 377 654.8 377.8C627.7 378.7 600.3 380.3 573 378.8C545.7 377.3 518.3 372.7 491 372.7C463.7 372.7 436.3 377.3 409 378.8C381.7 380.3 354.3 378.7 327 376.3C299.7 374 272.3 371 245.2 371C218 371 191 374 163.8 374C136.7 374 109.3 371 82 371C54.7 371 27.3 374 13.7 375.5L0 377Z" fill="#262050"></path><path d="M0 451L13.7 451C27.3 451 54.7 451 82 451C109.3 451 136.7 451 163.8 451C191 451 218 451 245.2 451C272.3 451 299.7 451 327 451C354.3 451 381.7 451 409 451C436.3 451 463.7 451 491 451C518.3 451 545.7 451 573 451C600.3 451 627.7 451 654.8 451C682 451 709 451 736.2 451C763.3 451 790.7 451 818 451C845.3 451 872.7 451 886.3 451L900 451L900 427L886.3 426.2C872.7 425.3 845.3 423.7 818 424.3C790.7 425 763.3 428 736.2 428.8C709 429.7 682 428.3 654.8 428.3C627.7 428.3 600.3 429.7 573 428.8C545.7 428 518.3 425 491 424.3C463.7 423.7 436.3 425.3 409 426.8C381.7 428.3 354.3 429.7 327 428.8C299.7 428 272.3 425 245.2 424.3C218 423.7 191 425.3 163.8 425.3C136.7 425.3 109.3 423.7 82 424.3C54.7 425 27.3 428 13.7 429.5L0 431Z" fill="#131223"></path></svg>